<svg xmlns="http://www.w3.org/2000/svg" width="200" height="200" viewBox="0 0 200 200" version="1.1"><path d="M 88.128 18.020 C 68.305 20.774, 47.665 32.628, 35.400 48.303 C 28.842 56.684, 21.876 70.721, 19.420 80.500 C 17.020 90.063, 17.020 109.937, 19.420 119.500 C 21.883 129.308, 28.848 143.324, 35.460 151.773 C 45.810 165.002, 63.976 176.502, 81 180.605 C 91.116 183.042, 108.884 183.042, 119 180.605 C 129.169 178.154, 143.103 171.324, 151.773 164.540 C 165.009 154.184, 176.521 135.994, 180.595 119 C 184.402 103.121, 182.408 81.470, 175.806 67 L 172.840 60.500 169.507 67.049 L 166.175 73.598 168.208 79.549 C 171.043 87.845, 171.727 105.003, 169.617 114.913 C 168.750 118.991, 165.952 126.619, 163.400 131.865 C 159.496 139.888, 157.389 142.765, 150.130 149.980 C 140.840 159.213, 133.113 163.955, 120.500 168.164 C 114.546 170.151, 111.483 170.500, 100 170.500 C 88.517 170.500, 85.454 170.151, 79.500 168.164 C 66.887 163.955, 59.160 159.213, 49.870 149.980 C 42.613 142.766, 40.503 139.887, 36.603 131.871 C 31.160 120.682, 29.035 111.731, 29.035 100 C 29.035 88.269, 31.160 79.318, 36.603 68.129 C 40.492 60.136, 42.641 57.197, 49.919 49.919 C 57.197 42.641, 60.136 40.492, 68.129 36.603 C 79.318 31.160, 88.269 29.035, 100 29.035 C 114.814 29.035, 129.347 33.520, 140.712 41.601 L 145.241 44.821 150.371 43.358 C 153.192 42.553, 156.099 41.694, 156.831 41.448 C 159.155 40.667, 147.002 31.261, 137.500 26.486 C 132.550 23.998, 125.060 21.102, 120.857 20.050 C 111.607 17.734, 96.798 16.816, 88.128 18.020 M 77 56.623 C 60.225 67.858, 46.356 77.471, 46.180 77.986 C 45.724 79.317, 47.834 132.167, 48.363 132.697 C 48.605 132.938, 62.540 123.992, 79.332 112.818 L 109.862 92.500 109.311 75.500 C 109.009 66.150, 108.477 53.481, 108.130 47.347 L 107.500 36.195 77 56.623 M 151.250 47.759 C 137.912 51.371, 127.009 54.590, 127.020 54.913 C 127.030 55.236, 131.144 57.750, 136.162 60.500 L 145.284 65.500 149.262 76.797 C 151.449 83.011, 153.360 87.961, 153.508 87.797 C 154.689 86.493, 176.836 41.022, 176.254 41.096 C 175.839 41.149, 164.588 44.148, 151.250 47.759 M 76.750 62.160 L 51 79.314 51.127 91.407 C 51.197 98.058, 51.535 108.341, 51.877 114.257 L 52.500 125.015 78.902 107.401 L 105.303 89.786 104.652 74.734 C 104.293 66.456, 104 56.379, 104 52.341 C 104 48.303, 103.662 45.001, 103.250 45.002 C 102.838 45.004, 90.912 52.724, 76.750 62.160 M 91.250 71.099 C 87.339 73.870, 87 74.464, 87 78.555 C 87 81, 87.230 83, 87.512 83 C 87.793 83, 90.260 81.537, 92.994 79.750 C 98.010 76.470, 99.084 73.988, 97.393 69.582 C 96.589 67.488, 96.220 67.579, 91.250 71.099 M 66.250 80.716 C 58.130 86.213, 58.001 86.366, 58.058 90.401 C 58.089 92.655, 58.427 96.192, 58.808 98.261 L 59.500 102.022 67.724 96.511 C 72.247 93.480, 76.160 91, 76.419 91 C 76.678 91, 77.028 93.015, 77.195 95.479 L 77.500 99.957 82.250 96.860 C 86.855 93.858, 87 93.613, 87 88.834 L 87 83.904 82.570 86.952 C 80.133 88.628, 77.658 90, 77.070 90 C 76.405 90, 76 87.160, 76 82.500 C 76 78.375, 75.662 75.029, 75.250 75.065 C 74.838 75.101, 70.787 77.644, 66.250 80.716 M 81.566 116.626 C 51.990 136.350, 50.742 137.308, 53.068 138.510 C 59.455 141.812, 100.201 159.095, 100.942 158.817 C 102.571 158.205, 161.950 118.494, 161.975 118 C 161.989 117.725, 151.121 112.775, 137.824 107 C 124.527 101.225, 113.389 96.387, 113.072 96.249 C 112.756 96.112, 98.578 105.281, 81.566 116.626" stroke="none" fill="#cc084f" fill-rule="evenodd"/></svg>