<svg xmlns="http://www.w3.org/2000/svg" width="200" height="200" viewBox="0 0 200 200" version="1.1"><path d="M 85 18.437 C 65.131 22.653, 48.128 32.674, 36.002 47.313 C 29.939 54.632, 21.897 70.671, 19.362 80.500 C 16.880 90.124, 16.880 109.876, 19.362 119.500 C 21.986 129.672, 29.983 145.456, 36.395 153.118 C 46.911 165.686, 63.875 176.260, 80.500 180.612 C 90.156 183.139, 109.844 183.139, 119.500 180.612 C 149.459 172.771, 172.788 149.447, 180.624 119.500 C 183.131 109.920, 183.105 90.222, 180.572 80.500 C 178.754 73.525, 173.619 61, 172.577 61 C 172.276 61, 170.639 63.752, 168.941 67.116 C 166.326 72.297, 166.019 73.636, 166.935 75.866 C 168.994 80.881, 170.965 92.532, 170.983 99.792 C 171.009 110.817, 168.500 121.266, 163.249 132 C 159.385 139.897, 157.158 142.943, 150.051 150.051 C 142.943 157.158, 139.897 159.385, 132 163.249 C 110.818 173.611, 89.182 173.611, 68 163.249 C 60.103 159.385, 57.057 157.158, 49.949 150.051 C 42.842 142.943, 40.615 139.897, 36.751 132 C 26.389 110.818, 26.389 89.182, 36.751 68 C 40.615 60.103, 42.842 57.057, 49.949 49.949 C 57.057 42.842, 60.103 40.615, 68 36.751 C 92.018 25.001, 119.179 26.865, 140.890 41.753 L 145.281 44.764 151.067 43.132 C 154.250 42.234, 156.999 41.194, 157.177 40.819 C 157.745 39.621, 145.728 30.627, 138.456 26.807 C 122.780 18.574, 100.670 15.112, 85 18.437 M 76.645 56.568 L 45.790 77.150 46.452 102.325 C 47.127 128.023, 47.569 133.338, 48.984 132.803 C 49.424 132.636, 63.339 123.500, 79.904 112.500 L 110.023 92.500 109.397 71.500 C 109.053 59.950, 108.485 47.235, 108.136 43.243 L 107.500 35.987 76.645 56.568 M 150.607 47.926 L 125.714 54.658 135.478 60.110 L 145.242 65.563 149.045 76.373 C 151.137 82.318, 153.011 87.344, 153.209 87.542 C 153.407 87.740, 158.840 77.349, 165.282 64.451 C 171.724 51.553, 176.658 41.044, 176.247 41.098 C 175.836 41.151, 164.298 44.224, 150.607 47.926 M 76.655 62.226 L 50.816 79.437 51.529 101.968 C 51.921 114.361, 52.323 124.598, 52.422 124.718 C 52.521 124.838, 64.386 117.077, 78.788 107.471 L 104.974 90.006 104.326 69.753 C 103.971 58.614, 103.413 48.491, 103.087 47.258 C 102.536 45.176, 100.641 46.249, 76.655 62.226 M 91.250 71.099 C 87.339 73.870, 87 74.464, 87 78.555 C 87 81, 87.298 83, 87.662 83 C 88.027 83, 90.502 81.603, 93.162 79.896 C 97.741 76.957, 98 76.557, 98 72.396 C 98 67.135, 97.093 66.961, 91.250 71.099 M 66.250 80.716 L 58 86.301 58 94.151 C 58 98.850, 58.412 102, 59.026 102 C 59.590 102, 63.753 99.518, 68.276 96.485 L 76.500 90.971 77 95.503 L 77.500 100.036 82.750 96.491 C 88.045 92.917, 88.378 92.175, 87.132 86.752 L 86.500 84.004 82 86.997 L 77.500 89.990 76.808 86.245 C 76.427 84.185, 76.089 80.813, 76.058 78.750 C 76.026 76.688, 75.662 75.029, 75.250 75.065 C 74.838 75.101, 70.787 77.644, 66.250 80.716 M 81.631 116.582 C 64.655 127.903, 51.156 137.505, 51.633 137.920 C 53.206 139.289, 100.048 159.152, 100.926 158.822 C 102.626 158.185, 161.950 118.488, 161.975 117.971 C 161.993 117.591, 119.543 98.706, 113.149 96.249 C 112.790 96.112, 98.607 105.261, 81.631 116.582" stroke="none" fill="#c7054c" fill-rule="evenodd"/><path d="M -0 100.005 L -0 200.010 100.250 199.755 L 200.500 199.500 200.755 99.750 L 201.010 0 100.505 0 L 0 0 -0 100.005 M 0.481 100.500 C 0.481 155.500, 0.602 178.147, 0.750 150.826 C 0.898 123.506, 0.898 78.506, 0.750 50.826 C 0.602 23.147, 0.481 45.500, 0.481 100.500 M 85 18.437 C 65.131 22.653, 48.128 32.674, 36.002 47.313 C 29.939 54.632, 21.897 70.671, 19.362 80.500 C 16.880 90.124, 16.880 109.876, 19.362 119.500 C 21.986 129.672, 29.983 145.456, 36.395 153.118 C 46.911 165.686, 63.875 176.260, 80.500 180.612 C 90.156 183.139, 109.844 183.139, 119.500 180.612 C 149.459 172.771, 172.788 149.447, 180.624 119.500 C 183.131 109.920, 183.105 90.222, 180.572 80.500 C 178.754 73.525, 173.619 61, 172.577 61 C 172.276 61, 170.639 63.752, 168.941 67.116 C 166.326 72.297, 166.019 73.636, 166.935 75.866 C 168.994 80.881, 170.965 92.532, 170.983 99.792 C 171.009 110.817, 168.500 121.266, 163.249 132 C 159.385 139.897, 157.158 142.943, 150.051 150.051 C 142.943 157.158, 139.897 159.385, 132 163.249 C 110.818 173.611, 89.182 173.611, 68 163.249 C 60.103 159.385, 57.057 157.158, 49.949 150.051 C 42.842 142.943, 40.615 139.897, 36.751 132 C 26.389 110.818, 26.389 89.182, 36.751 68 C 40.615 60.103, 42.842 57.057, 49.949 49.949 C 57.057 42.842, 60.103 40.615, 68 36.751 C 92.018 25.001, 119.179 26.865, 140.890 41.753 L 145.281 44.764 151.067 43.132 C 154.250 42.234, 156.999 41.194, 157.177 40.819 C 157.745 39.621, 145.728 30.627, 138.456 26.807 C 122.780 18.574, 100.670 15.112, 85 18.437 M 76.645 56.568 L 45.790 77.150 46.452 102.325 C 47.127 128.023, 47.569 133.338, 48.984 132.803 C 49.424 132.636, 63.339 123.500, 79.904 112.500 L 110.023 92.500 109.397 71.500 C 109.053 59.950, 108.485 47.235, 108.136 43.243 L 107.500 35.987 76.645 56.568 M 150.607 47.926 L 125.714 54.658 135.478 60.110 L 145.242 65.563 149.045 76.373 C 151.137 82.318, 153.011 87.344, 153.209 87.542 C 153.407 87.740, 158.840 77.349, 165.282 64.451 C 171.724 51.553, 176.658 41.044, 176.247 41.098 C 175.836 41.151, 164.298 44.224, 150.607 47.926 M 76.655 62.226 L 50.816 79.437 51.529 101.968 C 51.921 114.361, 52.323 124.598, 52.422 124.718 C 52.521 124.838, 64.386 117.077, 78.788 107.471 L 104.974 90.006 104.326 69.753 C 103.971 58.614, 103.413 48.491, 103.087 47.258 C 102.536 45.176, 100.641 46.249, 76.655 62.226 M 91.250 71.099 C 87.339 73.870, 87 74.464, 87 78.555 C 87 81, 87.298 83, 87.662 83 C 88.027 83, 90.502 81.603, 93.162 79.896 C 97.741 76.957, 98 76.557, 98 72.396 C 98 67.135, 97.093 66.961, 91.250 71.099 M 66.250 80.716 L 58 86.301 58 94.151 C 58 98.850, 58.412 102, 59.026 102 C 59.590 102, 63.753 99.518, 68.276 96.485 L 76.500 90.971 77 95.503 L 77.500 100.036 82.750 96.491 C 88.045 92.917, 88.378 92.175, 87.132 86.752 L 86.500 84.004 82 86.997 L 77.500 89.990 76.808 86.245 C 76.427 84.185, 76.089 80.813, 76.058 78.750 C 76.026 76.688, 75.662 75.029, 75.250 75.065 C 74.838 75.101, 70.787 77.644, 66.250 80.716 M 81.631 116.582 C 64.655 127.903, 51.156 137.505, 51.633 137.920 C 53.206 139.289, 100.048 159.152, 100.926 158.822 C 102.626 158.185, 161.950 118.488, 161.975 117.971 C 161.993 117.591, 119.543 98.706, 113.149 96.249 C 112.790 96.112, 98.607 105.261, 81.631 116.582" stroke="none" fill="#143344" fill-rule="evenodd"/></svg>